<svg id="svg" version="1.1" xmlns="http://www.w3.org/2000/svg" xmlns:xlink="http://www.w3.org/1999/xlink" width="400" height="390.4761904761905" viewBox="0, 0, 400,390.4761904761905"><g id="svgg"><path id="path0" d="M137.080 111.816 C 136.649 112.300,134.195 114.845,131.625 117.472 C 129.056 120.098,126.953 122.430,126.953 122.653 C 126.953 122.876,126.442 123.369,125.817 123.749 C 124.780 124.380,120.859 128.508,116.687 133.363 C 115.781 134.417,114.341 135.999,113.488 136.878 C 112.635 137.757,111.475 139.180,110.910 140.039 C 110.345 140.898,108.934 142.687,107.773 144.015 C 105.742 146.339,104.744 147.641,102.086 151.440 C 101.407 152.411,100.414 153.670,99.880 154.239 C 99.347 154.808,98.170 156.504,97.267 158.008 C 96.363 159.512,95.133 161.270,94.533 161.914 C 93.934 162.559,93.065 163.843,92.601 164.767 C 92.138 165.692,91.157 167.237,90.422 168.201 C 89.686 169.165,88.901 170.633,88.678 171.463 C 88.454 172.293,87.661 173.648,86.916 174.474 C 86.170 175.300,84.834 177.471,83.948 179.297 C 83.062 181.123,81.905 183.258,81.377 184.042 C 80.850 184.825,80.160 186.575,79.844 187.930 C 79.527 189.285,78.652 191.761,77.897 193.432 C 77.143 195.103,76.197 198.099,75.796 200.090 C 75.394 202.082,74.756 204.854,74.377 206.250 C 73.841 208.224,73.682 210.398,73.660 216.016 C 73.633 223.070,73.703 223.624,75.015 226.758 C 75.195 227.188,75.628 228.594,75.977 229.883 C 76.325 231.172,77.214 233.219,77.952 234.432 C 78.690 235.644,79.602 237.330,79.979 238.179 C 81.136 240.782,90.398 248.824,94.171 250.501 C 95.336 251.019,96.959 251.899,97.778 252.458 C 98.597 253.017,100.267 253.761,101.489 254.112 C 102.711 254.463,104.766 255.332,106.055 256.045 C 107.344 256.757,109.587 257.705,111.040 258.151 C 112.492 258.597,114.074 259.154,114.555 259.390 C 115.381 259.794,115.378 259.776,114.495 259.064 C 113.980 258.650,112.576 258.000,111.374 257.621 C 110.172 257.242,108.307 256.441,107.231 255.840 C 106.154 255.240,103.955 254.360,102.344 253.885 C 100.732 253.410,99.062 252.704,98.632 252.315 C 98.201 251.926,96.795 251.129,95.507 250.545 C 92.722 249.281,88.841 246.471,85.011 242.945 C 83.479 241.535,81.957 240.217,81.627 240.015 C 81.298 239.813,80.530 238.459,79.921 237.006 C 79.312 235.553,78.644 234.259,78.437 234.131 C 77.816 233.747,76.592 230.560,75.925 227.591 C 75.581 226.059,75.100 224.558,74.857 224.256 C 74.112 223.333,74.275 209.756,75.071 206.445 C 75.433 204.941,75.938 202.407,76.193 200.814 C 76.647 197.975,77.057 196.698,78.522 193.555 C 78.922 192.695,79.625 190.507,80.083 188.691 C 80.650 186.442,81.267 184.990,82.018 184.135 C 82.624 183.444,83.337 182.205,83.601 181.381 C 84.190 179.545,86.401 175.800,87.464 174.837 C 87.895 174.447,88.715 172.905,89.286 171.409 C 89.858 169.914,90.577 168.594,90.885 168.476 C 91.193 168.358,91.988 167.185,92.651 165.869 C 93.315 164.553,94.555 162.686,95.407 161.719 C 96.259 160.752,97.370 159.146,97.876 158.151 C 98.382 157.155,99.436 155.661,100.219 154.830 C 101.002 154.000,101.912 152.793,102.241 152.149 C 102.570 151.504,103.519 150.233,104.349 149.325 C 105.180 148.417,105.859 147.501,105.859 147.289 C 105.859 147.078,106.853 145.799,108.066 144.448 C 109.280 143.097,110.731 141.280,111.289 140.409 C 111.848 139.538,113.069 138.044,114.003 137.089 C 116.827 134.198,118.160 132.710,119.761 130.664 C 121.538 128.392,126.069 123.828,126.548 123.828 C 126.728 123.828,127.241 123.209,127.688 122.452 C 128.135 121.695,128.811 120.962,129.192 120.823 C 130.074 120.502,133.337 117.267,133.942 116.113 C 134.238 115.548,134.762 115.234,135.411 115.234 C 136.278 115.234,136.380 115.357,136.142 116.113 C 135.989 116.597,135.770 117.497,135.654 118.114 C 135.524 118.813,135.017 119.476,134.313 119.872 C 133.690 120.222,133.070 120.947,132.933 121.484 C 132.648 122.609,131.376 124.669,129.076 127.734 C 128.189 128.916,127.065 131.025,126.579 132.422 C 126.031 133.994,125.288 135.288,124.626 135.821 C 124.039 136.294,123.237 137.522,122.844 138.550 C 122.452 139.578,121.345 141.632,120.386 143.116 C 119.426 144.599,118.295 146.975,117.872 148.395 C 117.448 149.815,116.490 151.973,115.742 153.191 C 114.681 154.918,114.268 156.164,113.865 158.855 C 113.193 163.337,112.931 164.324,112.262 164.879 C 109.051 167.544,109.004 185.370,112.196 189.944 C 112.609 190.536,113.274 192.165,113.675 193.564 C 114.565 196.679,116.320 198.883,122.722 204.926 C 123.510 205.670,125.268 206.729,126.628 207.278 C 127.989 207.828,129.373 208.519,129.706 208.815 C 130.722 209.719,135.988 212.002,138.637 212.687 C 140.014 213.044,142.299 213.775,143.715 214.312 C 150.625 216.933,186.153 217.691,203.711 215.592 C 205.645 215.361,207.968 215.080,208.874 214.969 C 210.361 214.787,210.636 214.893,211.706 216.064 L 212.891 217.362 212.891 238.929 C 212.891 265.019,213.323 263.228,206.787 264.229 C 204.880 264.521,202.793 264.995,202.148 265.284 C 199.801 266.334,161.488 266.262,158.055 265.201 C 156.245 264.642,153.499 264.226,150.195 264.012 C 147.402 263.831,143.096 263.515,140.625 263.309 C 138.154 263.104,135.254 262.947,134.180 262.960 C 133.105 262.974,134.775 263.217,137.891 263.501 C 141.006 263.785,144.403 264.203,145.440 264.430 C 146.477 264.658,148.762 264.848,150.518 264.854 C 152.274 264.859,155.205 265.206,157.031 265.625 C 161.331 266.611,197.481 266.799,201.953 265.859 C 203.350 265.566,205.459 265.203,206.641 265.053 C 210.100 264.616,211.513 264.137,212.525 263.059 L 213.477 262.047 213.591 240.106 C 213.654 228.038,213.610 217.782,213.493 217.315 C 212.812 214.584,209.455 213.156,206.914 214.516 C 205.993 215.009,201.204 215.390,187.305 216.079 C 167.729 217.048,151.370 216.071,143.164 213.441 C 140.801 212.684,137.725 211.708,136.328 211.272 C 134.932 210.836,132.822 209.909,131.641 209.211 C 129.307 207.834,127.314 206.891,125.781 206.440 C 125.244 206.282,124.102 205.483,123.242 204.663 C 116.667 198.391,115.065 196.405,114.249 193.517 C 113.891 192.249,112.974 189.927,112.212 188.359 C 109.580 182.947,109.636 171.836,112.321 166.633 C 112.937 165.439,113.594 163.035,114.059 160.278 C 114.658 156.716,115.070 155.405,116.154 153.606 C 116.896 152.375,117.882 150.191,118.346 148.754 C 118.809 147.316,119.888 145.058,120.743 143.735 C 121.598 142.413,122.640 140.425,123.059 139.318 C 123.477 138.210,124.324 136.865,124.939 136.328 C 125.615 135.738,126.411 134.346,126.949 132.813 C 127.499 131.246,128.792 129.002,130.327 126.953 C 131.695 125.127,133.066 123.103,133.374 122.455 C 133.682 121.807,134.376 120.862,134.915 120.355 C 135.455 119.848,136.000 118.965,136.125 118.393 C 136.251 117.821,137.227 116.428,138.294 115.297 C 140.256 113.219,140.619 112.259,139.766 111.406 C 139.041 110.681,137.941 110.849,137.080 111.816 M139.453 112.878 C 139.453 113.795,138.058 114.991,137.319 114.708 C 136.427 114.366,136.585 112.638,137.571 111.947 C 138.538 111.270,139.453 111.723,139.453 112.878 M190.183 125.219 C 179.943 127.073,181.055 123.768,181.055 152.344 C 181.055 180.987,180.610 179.564,188.973 177.672 C 191.639 177.069,193.080 176.933,194.441 177.156 C 197.153 177.601,200.626 177.454,202.685 176.806 C 210.462 174.358,241.249 175.597,250.678 178.737 C 252.233 179.255,255.079 180.022,257.002 180.442 C 260.615 181.230,262.342 181.929,263.472 183.059 C 263.832 183.419,265.287 184.135,266.704 184.650 C 268.644 185.354,269.965 186.212,272.043 188.120 C 273.562 189.515,274.941 190.781,275.108 190.933 C 276.733 192.421,279.348 196.024,279.899 197.533 C 280.276 198.568,281.286 201.172,282.144 203.320 C 284.518 209.266,284.657 214.844,282.613 222.070 C 281.822 224.863,280.835 228.730,280.419 230.664 C 280.003 232.598,279.034 235.482,278.266 237.073 C 277.498 238.665,276.570 241.038,276.203 242.347 C 275.821 243.712,274.756 245.862,273.706 247.388 C 272.699 248.852,271.875 250.287,271.875 250.578 C 271.875 250.869,271.009 252.401,269.951 253.984 C 268.892 255.566,267.567 258.081,267.005 259.573 C 266.444 261.064,265.464 262.793,264.828 263.415 C 264.192 264.037,263.672 264.695,263.672 264.877 C 263.672 265.059,262.925 266.087,262.012 267.160 C 259.416 270.211,258.768 271.153,257.887 273.154 C 257.436 274.180,256.444 275.607,255.682 276.325 C 254.730 277.222,254.293 277.984,254.284 278.757 C 254.272 279.929,253.512 281.250,252.851 281.250 C 252.200 281.250,251.359 284.327,251.870 284.839 C 252.531 285.500,253.516 284.511,253.516 283.186 C 253.516 282.278,253.723 282.048,254.745 281.823 C 255.503 281.657,256.831 280.686,258.205 279.295 C 259.432 278.053,260.887 276.798,261.439 276.506 C 261.991 276.215,263.708 274.570,265.256 272.852 C 266.804 271.133,269.736 268.040,271.771 265.978 C 273.805 263.916,275.801 261.706,276.205 261.068 C 276.610 260.429,277.634 259.349,278.482 258.668 C 279.330 257.987,280.145 257.032,280.294 256.547 C 280.443 256.061,281.554 254.582,282.763 253.259 C 286.764 248.880,288.661 246.582,289.551 245.038 C 290.377 243.603,291.645 242.012,295.608 237.435 C 296.522 236.380,297.788 234.490,298.421 233.237 C 299.053 231.983,299.804 230.868,300.089 230.759 C 300.374 230.649,301.118 229.622,301.742 228.475 C 302.367 227.328,303.552 225.506,304.376 224.425 C 305.201 223.345,306.419 221.321,307.083 219.927 C 307.747 218.533,308.681 216.928,309.159 216.360 C 309.637 215.792,310.442 214.295,310.948 213.035 C 311.454 211.774,312.345 210.127,312.928 209.375 C 313.511 208.623,314.448 206.474,315.011 204.600 C 315.574 202.726,316.662 200.001,317.429 198.546 C 318.986 195.591,319.740 193.331,320.135 190.430 C 320.281 189.355,320.732 186.831,321.138 184.820 C 323.087 175.152,321.138 161.587,317.004 156.055 C 316.522 155.410,315.738 154.116,315.261 153.179 C 314.343 151.378,310.114 146.921,307.813 145.331 C 307.061 144.811,305.866 143.890,305.159 143.284 C 304.451 142.678,302.781 141.636,301.448 140.970 C 300.114 140.303,298.447 139.325,297.742 138.795 C 297.038 138.266,294.928 137.317,293.055 136.686 C 291.181 136.055,289.153 135.174,288.547 134.730 C 287.941 134.285,285.920 133.569,284.055 133.139 C 282.190 132.710,277.871 131.487,274.456 130.422 C 269.844 128.983,267.184 128.385,264.105 128.094 C 257.537 127.473,249.961 126.568,248.047 126.176 C 247.080 125.978,245.059 125.808,243.555 125.798 C 242.051 125.789,239.590 125.521,238.086 125.202 C 234.248 124.389,194.691 124.403,190.183 125.219 M120.117 260.727 C 121.621 260.994,123.552 261.522,124.407 261.900 C 125.339 262.311,127.218 262.638,129.095 262.714 L 132.227 262.842 129.688 262.537 C 128.291 262.369,126.055 261.765,124.719 261.194 C 122.884 260.410,121.689 260.167,119.836 260.198 L 117.383 260.240 120.117 260.727 " stroke="none" fill="#32accf" fill-rule="evenodd"></path><path id="path1" d="M0.000 195.313 L 0.000 390.625 200.000 390.625 L 400.000 390.625 400.000 195.313 L 400.000 0.000 200.000 0.000 L 0.000 0.000 0.000 195.313 M33.784 12.764 L 33.485 14.258 33.125 12.941 C 32.700 11.385,33.002 10.190,33.656 10.843 C 33.927 11.114,33.974 11.814,33.784 12.764 M116.643 11.555 C 116.513 11.895,116.406 12.345,116.406 12.555 C 116.406 12.765,116.230 12.828,116.016 12.695 C 115.379 12.302,115.563 10.938,116.253 10.938 C 116.665 10.938,116.799 11.150,116.643 11.555 M201.518 13.004 C 201.951 13.479,202.749 14.414,203.291 15.083 L 204.276 16.299 211.025 16.521 C 215.168 16.657,218.603 16.971,219.922 17.334 C 221.104 17.660,224.268 18.119,226.953 18.355 C 233.747 18.953,238.653 19.774,240.721 20.660 C 241.687 21.075,244.719 21.868,247.458 22.422 C 250.920 23.124,253.406 23.894,255.614 24.950 C 257.360 25.785,260.283 26.856,262.109 27.330 C 263.936 27.804,266.328 28.692,267.427 29.303 C 268.525 29.914,270.505 30.770,271.827 31.204 C 275.169 32.301,282.990 36.189,285.424 37.964 C 286.538 38.776,288.463 39.889,289.701 40.436 C 290.939 40.984,292.488 41.841,293.144 42.340 C 293.800 42.840,295.215 43.722,296.289 44.301 C 299.279 45.912,302.911 48.501,306.200 51.367 C 306.940 52.012,308.292 53.066,309.205 53.711 C 313.734 56.909,315.001 57.958,319.528 62.259 C 328.848 71.115,337.652 80.485,341.710 85.869 C 342.630 87.088,343.860 88.683,344.445 89.413 C 345.029 90.144,346.123 91.742,346.875 92.965 C 348.228 95.166,351.675 100.299,353.828 103.320 C 354.441 104.180,355.436 106.064,356.040 107.507 C 356.644 108.951,357.462 110.425,357.858 110.783 C 358.254 111.141,358.940 112.402,359.382 113.586 C 359.825 114.769,360.903 116.963,361.778 118.461 C 362.653 119.960,363.877 122.576,364.497 124.276 C 365.117 125.975,366.131 128.371,366.751 129.601 C 367.370 130.830,368.180 133.242,368.551 134.961 C 368.923 136.680,369.816 139.412,370.536 141.032 C 371.332 142.823,372.078 145.418,372.439 147.650 C 373.009 151.172,374.369 156.005,375.026 156.845 C 375.558 157.524,376.884 163.339,377.119 166.016 C 377.241 167.412,377.524 171.543,377.748 175.195 C 377.971 178.848,378.431 183.330,378.768 185.156 C 379.472 188.969,379.335 203.466,378.572 205.831 C 378.334 206.567,377.959 210.510,377.737 214.593 C 377.264 223.307,376.121 231.328,375.003 233.782 C 374.166 235.621,373.096 239.635,372.133 244.553 C 371.815 246.176,371.028 248.637,370.383 250.022 C 369.124 252.726,368.514 255.295,368.143 259.456 C 367.931 261.840,367.775 262.210,366.409 263.558 C 365.577 264.379,364.462 266.114,363.907 267.450 C 363.357 268.776,362.353 270.797,361.675 271.942 C 360.998 273.087,360.118 274.967,359.720 276.119 C 358.960 278.319,356.534 282.769,354.408 285.866 C 353.717 286.872,352.452 288.930,351.597 290.440 C 350.742 291.949,349.461 293.954,348.751 294.895 C 348.042 295.836,346.846 297.538,346.094 298.677 C 342.696 303.825,339.315 308.159,335.742 311.948 C 334.883 312.859,333.126 314.806,331.837 316.275 C 330.549 317.744,328.334 320.088,326.916 321.484 C 319.087 329.190,314.485 333.463,313.459 333.979 C 312.824 334.298,311.514 335.219,310.547 336.026 C 307.806 338.312,300.888 343.359,300.495 343.359 C 300.300 343.359,299.415 343.980,298.528 344.739 C 297.642 345.499,296.072 346.493,295.040 346.949 C 294.008 347.405,292.549 348.261,291.797 348.852 C 291.045 349.443,289.484 350.413,288.329 351.007 C 287.173 351.601,285.335 352.759,284.243 353.579 C 283.151 354.399,281.284 355.353,280.094 355.698 C 278.904 356.043,276.857 356.924,275.547 357.656 C 274.236 358.387,272.127 359.340,270.859 359.772 C 269.592 360.204,267.586 361.071,266.403 361.697 C 264.224 362.850,263.452 363.135,257.324 365.043 C 255.444 365.629,253.906 366.248,253.906 366.421 C 253.906 366.962,250.377 367.926,245.313 368.767 C 242.627 369.213,238.936 370.068,237.109 370.667 C 232.693 372.117,226.172 372.973,216.211 373.412 C 210.544 373.662,207.479 373.963,206.299 374.387 C 203.945 375.231,195.856 375.224,193.164 374.376 C 191.848 373.961,188.501 373.646,182.908 373.411 C 173.579 373.018,163.738 371.858,161.469 370.883 C 159.124 369.875,157.961 369.582,152.955 368.740 C 149.812 368.210,147.712 367.630,146.510 366.957 C 145.529 366.409,142.881 365.446,140.625 364.818 C 138.369 364.190,134.941 362.897,133.008 361.944 C 131.074 360.991,128.477 359.951,127.237 359.632 C 125.996 359.314,124.150 358.533,123.135 357.896 C 122.120 357.260,120.035 356.270,118.502 355.697 C 116.970 355.123,115.388 354.291,114.987 353.847 C 114.586 353.403,113.203 352.511,111.914 351.866 C 110.625 351.220,108.584 350.025,107.379 349.208 C 106.173 348.392,104.328 347.258,103.277 346.688 C 100.397 345.124,89.061 336.883,88.466 335.920 C 88.329 335.699,87.105 334.816,85.744 333.956 C 84.379 333.094,81.991 330.980,80.417 329.240 C 78.848 327.505,76.570 325.410,75.354 324.585 C 73.163 323.097,72.534 322.442,67.116 316.016 C 65.577 314.189,63.995 312.465,63.602 312.183 C 62.677 311.522,58.790 306.753,57.031 304.123 C 54.939 300.993,53.095 298.492,51.276 296.315 C 50.367 295.226,49.071 293.281,48.397 291.992 C 47.722 290.703,46.584 288.843,45.867 287.860 C 45.149 286.876,44.371 285.568,44.138 284.953 C 43.904 284.339,42.943 282.595,42.002 281.078 C 41.062 279.561,39.985 277.529,39.609 276.563 C 39.233 275.596,38.246 273.750,37.415 272.461 C 36.585 271.172,35.541 268.922,35.096 267.461 C 34.543 265.646,33.986 264.607,33.338 264.183 C 31.922 263.255,31.604 262.391,31.010 257.872 C 30.628 254.962,30.166 253.170,29.438 251.778 C 27.891 248.820,27.075 246.165,26.184 241.188 C 25.741 238.714,25.208 236.388,25.000 236.020 C 23.305 233.028,22.067 225.199,21.639 214.763 C 21.456 210.303,21.162 207.697,20.655 206.055 C 19.603 202.646,19.615 190.190,20.676 183.937 C 21.091 181.492,21.632 175.977,21.879 171.680 C 22.377 163.012,23.017 159.114,24.436 156.112 C 24.959 155.006,25.809 151.904,26.326 149.219 C 26.937 146.042,27.818 143.039,28.847 140.625 C 29.717 138.584,30.699 135.729,31.029 134.280 C 31.358 132.831,32.223 130.458,32.951 129.007 C 33.679 127.555,34.571 125.313,34.934 124.023 C 35.298 122.734,36.180 120.713,36.896 119.531 C 37.611 118.350,38.726 116.207,39.375 114.771 C 40.023 113.334,41.116 111.341,41.804 110.341 C 42.491 109.342,43.460 107.488,43.956 106.222 C 44.453 104.956,45.458 103.170,46.190 102.253 C 46.923 101.336,48.021 99.707,48.630 98.633 C 49.239 97.559,49.862 96.592,50.014 96.484 C 50.166 96.377,51.274 94.778,52.475 92.931 C 53.676 91.084,54.953 89.329,55.312 89.030 C 55.672 88.732,56.410 87.783,56.954 86.922 C 58.020 85.233,61.225 81.270,62.804 79.688 C 63.339 79.150,65.241 77.041,67.030 75.000 C 73.162 68.002,84.726 57.315,89.962 53.808 C 90.844 53.216,92.102 52.239,92.756 51.637 C 95.211 49.376,102.190 44.531,102.992 44.531 C 103.247 44.531,104.253 43.923,105.228 43.179 C 106.203 42.435,107.930 41.356,109.066 40.781 C 110.203 40.207,112.100 39.114,113.281 38.353 C 116.569 36.234,124.939 32.079,127.325 31.381 C 128.496 31.039,130.517 30.177,131.817 29.466 C 133.116 28.756,135.059 27.972,136.133 27.725 C 138.798 27.112,139.867 26.712,143.945 24.801 C 146.307 23.695,148.487 22.996,150.586 22.672 C 152.305 22.407,155.293 21.679,157.227 21.055 C 161.181 19.778,168.527 18.557,174.500 18.184 C 176.814 18.039,179.427 17.613,180.714 17.170 C 182.543 16.541,184.008 16.405,189.026 16.400 C 196.038 16.393,195.609 16.549,197.231 13.418 L 198.476 11.016 199.603 11.579 C 200.222 11.888,201.084 12.529,201.518 13.004 M190.625 30.735 C 189.873 30.813,188.027 31.062,186.523 31.288 C 183.921 31.680,182.023 31.853,170.011 32.796 C 165.781 33.128,164.308 33.414,162.003 34.353 C 158.706 35.697,153.520 37.262,150.209 37.913 C 148.928 38.165,146.555 38.952,144.936 39.661 C 143.317 40.371,140.850 41.241,139.453 41.596 C 138.057 41.950,136.282 42.652,135.509 43.156 C 134.736 43.660,132.769 44.546,131.137 45.126 C 129.505 45.705,127.061 46.855,125.706 47.681 C 124.351 48.507,121.748 49.953,119.922 50.896 C 113.667 54.124,111.179 55.521,109.789 56.587 C 109.024 57.174,107.241 58.395,105.826 59.300 C 104.411 60.205,102.829 61.400,102.311 61.955 C 101.792 62.510,100.851 63.234,100.219 63.562 C 96.335 65.582,79.600 80.868,76.364 85.352 C 75.744 86.211,74.335 87.793,73.235 88.867 C 70.672 91.369,69.226 93.262,64.259 100.617 C 63.400 101.889,62.609 103.018,62.501 103.125 C 61.396 104.224,58.438 108.499,57.861 109.830 C 57.458 110.761,56.491 112.464,55.712 113.613 C 54.934 114.763,54.297 115.919,54.297 116.182 C 54.297 116.699,50.454 124.677,50.049 125.000 C 49.200 125.678,45.313 134.545,44.920 136.701 C 44.667 138.088,43.873 140.389,43.155 141.814 C 42.282 143.548,41.578 145.850,41.027 148.769 C 40.574 151.169,39.582 154.844,38.823 156.937 C 36.649 162.933,35.478 170.602,35.849 176.415 C 35.947 177.952,35.699 180.184,35.153 182.665 C 34.128 187.322,33.640 199.900,34.337 203.711 C 34.744 205.931,34.994 208.353,35.953 219.336 C 36.517 225.795,36.963 228.106,38.498 232.527 C 39.226 234.625,40.256 238.437,40.785 240.996 C 41.326 243.614,42.265 246.729,42.931 248.118 C 43.582 249.475,44.477 252.168,44.922 254.102 C 45.415 256.252,46.230 258.452,47.019 259.766 C 47.729 260.947,48.544 262.529,48.832 263.281 C 49.119 264.033,50.268 266.230,51.385 268.164 C 52.502 270.098,53.638 272.383,53.909 273.242 C 54.180 274.102,54.996 275.623,55.723 276.624 C 56.450 277.624,57.429 279.382,57.898 280.530 C 58.634 282.327,61.361 286.371,65.234 291.406 C 65.812 292.158,66.591 293.365,66.965 294.088 C 67.339 294.810,68.302 296.129,69.106 297.017 C 69.909 297.906,70.817 299.004,71.123 299.458 C 72.461 301.442,80.804 310.195,86.765 315.868 C 87.921 316.968,89.328 318.374,89.891 318.993 C 91.620 320.892,95.136 323.650,100.195 327.074 C 101.270 327.801,103.027 329.182,104.102 330.143 C 105.176 331.104,107.045 332.450,108.255 333.135 C 109.465 333.820,110.684 334.655,110.963 334.992 C 111.243 335.329,112.575 336.104,113.924 336.716 C 115.273 337.328,116.954 338.264,117.661 338.797 C 118.367 339.330,120.615 340.597,122.656 341.613 C 124.697 342.629,126.777 343.833,127.277 344.288 C 128.563 345.458,131.814 346.154,132.716 345.452 C 133.423 344.903,133.232 344.603,131.426 343.430 C 131.200 343.284,130.513 342.285,129.899 341.211 C 129.285 340.137,128.386 338.780,127.903 338.196 C 127.420 337.612,126.726 336.237,126.362 335.141 C 125.998 334.044,125.468 333.058,125.185 332.950 C 122.179 331.796,122.004 314.403,124.965 311.144 C 125.361 310.708,125.906 309.648,126.177 308.789 C 127.321 305.152,132.000 299.526,135.421 297.674 C 136.242 297.229,137.757 296.260,138.788 295.520 C 145.566 290.652,162.629 291.228,167.383 296.485 C 167.813 296.960,168.866 297.707,169.723 298.144 C 171.621 299.113,175.569 303.009,175.981 304.320 C 176.146 304.845,177.039 306.240,177.964 307.422 C 180.298 310.400,180.722 311.631,181.244 316.932 C 181.689 321.450,181.285 330.158,180.547 331.952 C 179.883 333.567,174.963 340.561,173.587 341.846 C 169.727 345.452,168.415 346.468,166.789 347.114 C 165.826 347.497,164.248 348.308,163.281 348.918 C 162.314 349.528,160.732 350.280,159.766 350.589 C 154.713 352.204,150.692 353.755,150.658 354.102 C 150.638 354.316,153.074 354.864,156.072 355.318 C 159.070 355.772,162.976 356.605,164.751 357.169 C 168.186 358.259,176.015 359.155,186.012 359.602 C 188.871 359.729,192.117 360.082,193.224 360.386 C 195.653 361.052,203.771 361.127,205.346 360.499 C 205.950 360.257,208.906 359.915,211.914 359.737 C 227.925 358.793,232.833 358.211,236.541 356.815 C 237.902 356.303,240.828 355.523,243.043 355.081 C 245.258 354.640,247.422 354.119,247.852 353.924 C 251.679 352.183,256.617 350.338,259.298 349.647 C 261.081 349.188,263.191 348.386,263.985 347.864 C 264.780 347.343,266.730 346.450,268.318 345.880 C 269.907 345.311,271.911 344.335,272.772 343.711 C 273.632 343.088,274.495 342.578,274.689 342.578 C 275.413 342.578,278.784 340.860,280.967 339.379 C 282.208 338.537,284.229 337.371,285.459 336.789 C 288.075 335.549,293.741 331.827,295.703 330.058 C 296.455 329.381,297.861 328.376,298.828 327.827 C 299.795 327.277,301.113 326.362,301.758 325.793 C 302.402 325.224,303.545 324.306,304.297 323.752 C 305.049 323.198,306.455 322.002,307.422 321.094 C 308.389 320.185,310.471 318.276,312.049 316.850 C 317.270 312.134,321.041 308.241,323.450 305.078 C 324.023 304.326,325.265 302.908,326.211 301.927 C 328.978 299.056,331.762 295.690,332.813 293.944 C 333.350 293.052,334.200 291.808,334.702 291.180 C 335.952 289.619,337.913 286.667,339.872 283.398 C 340.773 281.895,342.293 279.484,343.249 278.041 C 344.205 276.598,345.316 274.550,345.719 273.491 C 346.121 272.431,346.986 270.721,347.639 269.690 C 348.293 268.659,348.828 267.654,348.828 267.456 C 348.828 267.257,349.880 265.019,351.166 262.481 C 352.451 259.943,353.875 256.511,354.330 254.854 C 354.784 253.198,355.759 250.681,356.496 249.261 C 357.496 247.336,358.032 245.530,358.605 242.157 C 359.027 239.669,359.884 236.153,360.510 234.344 C 361.587 231.231,362.240 228.063,363.282 220.898 C 363.532 219.180,364.071 215.488,364.479 212.695 C 365.082 208.570,365.223 205.336,365.228 195.457 L 365.234 183.298 364.206 181.052 C 363.294 179.059,363.207 178.502,363.430 176.103 C 363.667 173.551,363.369 169.721,362.447 163.477 C 362.225 161.973,361.437 158.957,360.696 156.776 C 359.956 154.595,358.990 150.914,358.551 148.596 C 358.112 146.278,357.401 143.693,356.971 142.852 C 356.542 142.010,355.491 139.293,354.636 136.813 C 353.781 134.334,352.327 130.881,351.405 129.141 C 350.482 127.400,349.426 125.064,349.058 123.948 C 348.690 122.832,348.043 121.479,347.620 120.941 C 347.197 120.403,346.394 118.943,345.837 117.696 C 345.280 116.450,344.252 114.551,343.553 113.477 C 342.855 112.402,341.632 110.327,340.836 108.864 C 340.041 107.402,338.904 105.644,338.311 104.958 C 337.718 104.272,336.585 102.744,335.793 101.563 C 332.950 97.318,332.579 96.806,329.800 93.288 C 328.250 91.326,326.360 89.208,325.600 88.582 C 324.840 87.955,323.769 86.676,323.220 85.739 C 322.211 84.017,314.628 76.440,310.337 72.865 C 309.056 71.797,307.024 70.040,305.821 68.958 C 302.572 66.038,300.352 64.311,299.217 63.822 C 298.661 63.582,297.247 62.608,296.075 61.656 C 294.904 60.705,293.066 59.338,291.992 58.618 C 290.918 57.898,289.512 56.835,288.867 56.257 C 288.223 55.678,286.816 54.889,285.742 54.504 C 284.668 54.118,283.261 53.410,282.615 52.931 C 281.970 52.451,280.212 51.437,278.709 50.677 C 277.206 49.917,274.766 48.585,273.287 47.717 C 271.808 46.849,269.171 45.574,267.428 44.884 C 265.684 44.194,263.895 43.305,263.451 42.908 C 262.890 42.406,262.037 42.187,260.642 42.187 C 258.625 42.187,257.548 42.792,258.862 43.187 C 260.628 43.718,262.734 45.010,263.132 45.807 C 264.606 48.750,265.083 49.543,266.062 50.677 C 266.662 51.372,267.352 52.690,267.597 53.607 C 267.841 54.523,268.536 56.328,269.141 57.617 C 271.604 62.864,271.846 71.982,269.639 76.367 C 268.991 77.656,268.174 79.703,267.825 80.916 C 267.200 83.085,265.121 86.097,262.762 88.249 C 257.081 93.435,257.505 93.177,249.546 96.274 C 242.100 99.172,238.058 98.801,229.102 94.396 C 226.738 93.234,224.463 91.902,224.045 91.437 C 223.628 90.972,222.440 90.131,221.406 89.568 C 219.931 88.765,219.311 88.104,218.523 86.494 C 217.971 85.366,217.162 84.120,216.726 83.726 C 215.606 82.714,214.064 79.546,213.240 76.563 C 212.855 75.166,212.171 72.793,211.722 71.289 C 210.315 66.581,213.306 55.716,217.248 51.215 C 218.074 50.271,218.750 49.298,218.750 49.053 C 218.750 48.335,222.710 44.682,224.414 43.828 C 225.273 43.397,226.408 42.583,226.935 42.018 C 227.486 41.428,228.815 40.730,230.060 40.377 C 231.252 40.040,232.596 39.531,233.048 39.246 C 233.500 38.962,235.169 38.342,236.759 37.869 C 240.645 36.711,240.643 36.724,237.199 34.905 L 234.180 33.310 226.367 32.649 C 222.070 32.285,215.646 31.646,212.091 31.228 C 206.160 30.531,195.057 30.276,190.625 30.735 M33.800 96.793 C 33.360 97.939,32.829 96.684,33.088 95.108 L 33.343 93.555 33.687 94.872 C 33.876 95.596,33.927 96.461,33.800 96.793 M116.240 96.781 C 115.816 97.205,115.694 96.678,115.946 95.508 L 116.198 94.336 116.332 95.446 C 116.405 96.056,116.364 96.657,116.240 96.781 M148.170 102.882 C 148.403 103.491,147.746 104.297,147.015 104.297 C 146.153 104.297,145.954 103.412,146.695 102.870 C 147.605 102.205,147.911 102.207,148.170 102.882 M145.536 105.124 C 146.106 106.046,144.822 109.817,143.641 110.686 C 143.016 111.147,141.887 112.578,141.132 113.867 C 140.376 115.156,139.148 116.914,138.401 117.773 C 137.655 118.633,135.550 121.621,133.725 124.414 C 131.900 127.207,129.996 129.932,129.494 130.469 C 128.991 131.006,128.299 132.425,127.955 133.622 C 127.540 135.064,126.873 136.241,125.978 137.108 C 125.183 137.878,124.365 139.234,123.991 140.400 C 123.641 141.491,122.679 143.525,121.853 144.922 C 121.028 146.318,119.789 148.955,119.100 150.781 C 118.411 152.607,117.350 154.805,116.742 155.664 C 115.833 156.949,115.504 158.093,114.890 162.109 C 114.479 164.795,113.625 168.398,112.993 170.117 C 111.440 174.342,111.355 182.648,112.836 185.481 C 113.322 186.411,114.061 188.521,114.479 190.168 C 115.768 195.262,115.296 194.568,122.539 201.992 C 125.500 205.026,126.049 205.415,128.218 206.018 C 129.539 206.385,131.624 207.306,132.851 208.063 C 135.331 209.594,140.690 211.164,153.320 214.059 C 155.868 214.643,172.535 215.537,176.367 215.295 C 176.582 215.281,180.889 215.159,185.938 215.024 C 191.444 214.877,195.899 214.573,197.070 214.266 C 198.145 213.984,200.381 213.641,202.040 213.502 C 203.699 213.364,205.670 212.994,206.422 212.680 C 209.826 211.258,213.770 212.478,214.724 215.248 C 215.492 217.479,215.423 261.783,214.649 263.280 C 212.672 267.103,210.262 267.388,180.078 267.368 C 155.435 267.351,148.556 267.090,144.141 266.004 C 139.719 264.916,134.278 264.135,129.492 263.899 C 127.129 263.783,124.581 263.508,123.831 263.289 C 123.080 263.070,121.006 262.891,119.221 262.891 C 116.042 262.891,115.949 262.863,114.569 261.523 C 113.795 260.771,112.881 260.154,112.538 260.151 C 111.246 260.140,105.236 257.799,103.674 256.698 C 102.780 256.067,101.093 255.274,99.925 254.935 C 98.758 254.595,97.198 253.880,96.460 253.346 C 95.721 252.811,93.998 251.841,92.629 251.190 C 91.261 250.539,89.476 249.434,88.664 248.734 C 87.851 248.034,86.381 246.872,85.397 246.151 C 84.413 245.431,83.264 244.286,82.844 243.606 C 82.425 242.927,81.551 241.980,80.904 241.501 C 80.256 241.022,79.378 239.843,78.952 238.880 C 78.526 237.917,77.649 236.465,77.003 235.654 C 76.321 234.798,74.958 231.804,73.754 228.516 L 71.680 222.852 71.707 216.211 C 71.726 211.387,71.910 208.876,72.380 207.031 C 75.412 195.135,76.243 192.409,77.303 190.885 C 77.942 189.966,78.727 188.021,79.106 186.414 C 79.475 184.850,80.191 182.960,80.697 182.215 C 81.203 181.470,82.232 179.585,82.984 178.028 C 83.736 176.470,85.064 174.229,85.934 173.047 C 86.805 171.865,87.785 170.283,88.113 169.531 C 88.440 168.779,89.202 167.545,89.808 166.789 C 90.413 166.033,91.309 164.626,91.799 163.664 C 92.289 162.702,93.247 161.211,93.928 160.352 C 94.608 159.492,95.770 157.746,96.508 156.471 C 97.247 155.196,98.501 153.491,99.296 152.683 C 100.090 151.875,101.001 150.708,101.321 150.090 C 101.640 149.472,102.195 148.723,102.553 148.426 C 102.911 148.129,103.805 146.946,104.539 145.798 C 106.270 143.093,111.318 137.162,112.861 136.021 C 113.522 135.533,114.063 134.890,114.063 134.593 C 114.063 134.297,114.621 133.584,115.304 133.009 C 115.987 132.435,117.019 131.232,117.598 130.338 C 118.710 128.618,124.686 122.656,125.297 122.656 C 125.494 122.656,125.852 122.227,126.091 121.702 C 126.527 120.744,129.906 116.976,132.373 114.695 C 133.098 114.025,135.430 111.757,137.555 109.656 C 141.731 105.527,144.732 103.823,145.536 105.124 M238.086 125.202 C 239.590 125.521,242.051 125.789,243.555 125.798 C 245.059 125.808,247.080 125.978,248.047 126.176 C 249.961 126.568,257.537 127.473,264.105 128.094 C 267.184 128.385,269.844 128.983,274.456 130.422 C 277.871 131.487,282.190 132.710,284.055 133.139 C 285.920 133.569,287.941 134.285,288.547 134.730 C 289.153 135.174,291.181 136.055,293.055 136.686 C 294.928 137.317,297.038 138.266,297.742 138.795 C 298.447 139.325,300.114 140.303,301.448 140.970 C 302.781 141.636,304.451 142.678,305.159 143.284 C 305.866 143.890,307.061 144.811,307.813 145.331 C 310.114 146.921,314.343 151.378,315.261 153.179 C 315.738 154.116,316.522 155.410,317.004 156.055 C 321.138 161.587,323.087 175.152,321.138 184.820 C 320.732 186.831,320.281 189.355,320.135 190.430 C 319.740 193.331,318.986 195.591,317.429 198.546 C 316.662 200.001,315.574 202.726,315.011 204.600 C 314.448 206.474,313.511 208.623,312.928 209.375 C 312.345 210.127,311.454 211.774,310.948 213.035 C 310.442 214.295,309.637 215.792,309.159 216.360 C 308.681 216.928,307.747 218.533,307.083 219.927 C 306.419 221.321,305.201 223.345,304.376 224.425 C 303.552 225.506,302.367 227.328,301.742 228.475 C 301.118 229.622,300.374 230.649,300.089 230.759 C 299.804 230.868,299.053 231.983,298.421 233.237 C 297.788 234.490,296.522 236.380,295.608 237.435 C 291.645 242.012,290.377 243.603,289.551 245.038 C 288.661 246.582,286.764 248.880,282.763 253.259 C 281.554 254.582,280.443 256.061,280.294 256.547 C 280.145 257.032,279.330 257.987,278.482 258.668 C 277.634 259.349,276.610 260.429,276.205 261.068 C 275.801 261.706,273.805 263.916,271.771 265.978 C 269.736 268.040,266.804 271.133,265.256 272.852 C 263.708 274.570,261.991 276.215,261.439 276.506 C 260.887 276.798,259.432 278.053,258.205 279.295 C 256.831 280.686,255.503 281.657,254.745 281.823 C 253.723 282.048,253.516 282.278,253.516 283.186 C 253.516 284.511,252.531 285.500,251.870 284.839 C 251.359 284.327,252.200 281.250,252.851 281.250 C 253.512 281.250,254.272 279.929,254.284 278.757 C 254.293 277.984,254.730 277.222,255.682 276.325 C 256.444 275.607,257.436 274.180,257.887 273.154 C 258.768 271.153,259.416 270.211,262.012 267.160 C 262.925 266.087,263.672 265.059,263.672 264.877 C 263.672 264.695,264.192 264.037,264.828 263.415 C 265.464 262.793,266.444 261.064,267.005 259.573 C 267.567 258.081,268.892 255.566,269.951 253.984 C 271.009 252.401,271.875 250.869,271.875 250.578 C 271.875 250.287,272.699 248.852,273.706 247.388 C 274.756 245.862,275.821 243.712,276.203 242.347 C 276.570 241.038,277.498 238.665,278.266 237.073 C 279.034 235.482,280.003 232.598,280.419 230.664 C 280.835 228.730,281.822 224.863,282.613 222.070 C 284.657 214.844,284.518 209.266,282.144 203.320 C 281.286 201.172,280.276 198.568,279.899 197.533 C 279.348 196.024,276.733 192.421,275.108 190.933 C 274.941 190.781,273.562 189.515,272.043 188.120 C 269.965 186.212,268.644 185.354,266.704 184.650 C 265.287 184.135,263.832 183.419,263.472 183.059 C 262.342 181.929,260.615 181.230,257.002 180.442 C 255.079 180.022,252.233 179.255,250.678 178.737 C 242.631 176.057,223.127 174.830,207.900 176.045 C 203.173 176.422,203.071 176.451,200.768 178.040 L 198.432 179.652 197.823 178.722 C 196.579 176.824,193.815 176.522,188.770 177.731 C 184.886 178.662,183.069 178.421,181.870 176.816 C 180.582 175.091,180.589 129.587,181.878 127.861 C 182.740 126.706,183.757 126.382,190.183 125.219 C 194.691 124.403,234.248 124.389,238.086 125.202 M116.672 178.502 C 117.058 179.525,117.018 179.689,116.328 179.908 C 115.206 180.264,114.738 179.626,115.210 178.384 C 115.723 177.036,116.131 177.069,116.672 178.502 M34.333 345.168 C 33.237 346.488,31.772 345.289,32.718 343.846 L 33.354 342.875 34.066 343.754 C 34.611 344.426,34.673 344.758,34.333 345.168 M199.569 345.013 C 198.320 345.475,197.422 345.089,198.033 344.353 C 198.402 343.908,198.696 343.885,199.476 344.240 L 200.454 344.686 199.569 345.013 M367.261 345.005 C 367.068 345.198,366.421 345.233,365.824 345.083 L 364.738 344.811 365.669 344.313 C 366.676 343.774,367.941 344.324,367.261 345.005 " stroke="none" fill="#fbf9f9" fill-rule="evenodd"></path><path id="path2" d="M137.571 111.947 C 136.585 112.638,136.427 114.366,137.319 114.708 C 137.650 114.835,138.265 114.626,138.686 114.245 C 140.199 112.875,139.196 110.809,137.571 111.947 M133.942 116.113 C 133.337 117.267,130.074 120.502,129.192 120.823 C 128.811 120.962,128.135 121.695,127.688 122.452 C 127.241 123.209,126.728 123.828,126.548 123.828 C 126.069 123.828,121.538 128.392,119.761 130.664 C 118.160 132.710,116.827 134.198,114.003 137.089 C 113.069 138.044,111.848 139.538,111.289 140.409 C 110.731 141.280,109.280 143.097,108.066 144.448 C 106.853 145.799,105.859 147.078,105.859 147.289 C 105.859 147.501,105.180 148.417,104.349 149.325 C 103.519 150.233,102.570 151.504,102.241 152.149 C 101.912 152.793,101.002 154.000,100.219 154.830 C 99.436 155.661,98.382 157.155,97.876 158.151 C 97.370 159.146,96.259 160.752,95.407 161.719 C 94.555 162.686,93.315 164.553,92.651 165.869 C 91.988 167.185,91.193 168.358,90.885 168.476 C 90.577 168.594,89.858 169.914,89.286 171.409 C 88.715 172.905,87.895 174.447,87.464 174.837 C 86.401 175.800,84.190 179.545,83.601 181.381 C 83.337 182.205,82.624 183.444,82.018 184.135 C 81.267 184.990,80.650 186.442,80.083 188.691 C 79.625 190.507,78.922 192.695,78.522 193.555 C 77.057 196.698,76.647 197.975,76.193 200.814 C 75.938 202.407,75.433 204.941,75.071 206.445 C 74.275 209.756,74.112 223.333,74.857 224.256 C 75.100 224.558,75.581 226.059,75.925 227.591 C 76.592 230.560,77.816 233.747,78.437 234.131 C 78.644 234.259,79.312 235.553,79.921 237.006 C 80.530 238.459,81.298 239.813,81.627 240.015 C 81.957 240.217,83.479 241.535,85.011 242.945 C 88.841 246.471,92.722 249.281,95.507 250.545 C 96.795 251.129,98.201 251.926,98.632 252.315 C 99.062 252.704,100.732 253.410,102.344 253.885 C 103.955 254.360,106.152 255.236,107.227 255.832 C 108.301 256.427,110.146 257.231,111.328 257.618 C 112.510 258.004,114.089 258.734,114.837 259.239 C 115.972 260.004,116.694 260.156,119.202 260.156 C 121.603 260.156,122.782 260.385,125.068 261.292 C 128.011 262.460,132.067 262.897,150.586 264.043 C 153.589 264.229,156.273 264.644,158.055 265.197 C 161.484 266.262,199.794 266.337,202.148 265.284 C 202.793 264.995,204.880 264.521,206.787 264.229 C 213.323 263.228,212.891 265.019,212.891 238.929 L 212.891 217.362 211.706 216.064 C 210.636 214.893,210.361 214.787,208.874 214.969 C 207.968 215.080,205.645 215.361,203.711 215.592 C 186.153 217.691,150.625 216.933,143.715 214.312 C 142.299 213.775,140.014 213.044,138.637 212.687 C 135.988 212.002,130.722 209.719,129.706 208.815 C 129.373 208.519,127.989 207.828,126.628 207.278 C 125.268 206.729,123.510 205.670,122.722 204.926 C 116.320 198.883,114.565 196.679,113.675 193.564 C 113.274 192.165,112.609 190.536,112.196 189.944 C 109.004 185.370,109.051 167.544,112.262 164.879 C 112.931 164.324,113.193 163.337,113.865 158.855 C 114.268 156.164,114.681 154.918,115.742 153.191 C 116.490 151.973,117.448 149.815,117.872 148.395 C 118.295 146.975,119.426 144.599,120.386 143.116 C 121.345 141.632,122.452 139.578,122.844 138.550 C 123.237 137.522,124.039 136.294,124.626 135.821 C 125.288 135.288,126.031 133.994,126.579 132.422 C 127.065 131.025,128.189 128.916,129.076 127.734 C 131.376 124.669,132.648 122.609,132.933 121.484 C 133.070 120.947,133.690 120.222,134.313 119.872 C 135.017 119.476,135.524 118.813,135.654 118.114 C 135.770 117.497,135.989 116.597,136.142 116.113 C 136.380 115.357,136.278 115.234,135.411 115.234 C 134.762 115.234,134.238 115.548,133.942 116.113 " stroke="none" fill="#2a8c52" fill-rule="evenodd"></path><path id="path3" d="M32.997 11.020 C 32.870 11.352,32.927 12.216,33.125 12.941 L 33.485 14.258 33.784 12.764 C 34.097 11.194,33.467 9.796,32.997 11.020 M115.625 11.696 C 115.625 12.113,115.801 12.563,116.016 12.695 C 116.230 12.828,116.406 12.765,116.406 12.555 C 116.406 12.345,116.513 11.895,116.643 11.555 C 116.799 11.150,116.665 10.938,116.253 10.938 C 115.892 10.938,115.625 11.260,115.625 11.696 M197.231 13.418 C 195.609 16.549,196.038 16.393,189.026 16.400 C 184.008 16.405,182.543 16.541,180.714 17.170 C 179.427 17.613,176.814 18.039,174.500 18.184 C 168.527 18.557,161.181 19.778,157.227 21.055 C 155.293 21.679,152.305 22.407,150.586 22.672 C 148.487 22.996,146.307 23.695,143.945 24.801 C 139.867 26.712,138.798 27.112,136.133 27.725 C 135.059 27.972,133.116 28.756,131.817 29.466 C 130.517 30.177,128.496 31.039,127.325 31.381 C 124.939 32.079,116.569 36.234,113.281 38.353 C 112.100 39.114,110.203 40.207,109.066 40.781 C 107.930 41.356,106.203 42.435,105.228 43.179 C 104.253 43.923,103.247 44.531,102.992 44.531 C 102.190 44.531,95.211 49.376,92.756 51.637 C 92.102 52.239,90.844 53.216,89.962 53.808 C 84.726 57.315,73.162 68.002,67.030 75.000 C 65.241 77.041,63.339 79.150,62.804 79.688 C 61.225 81.270,58.020 85.233,56.954 86.922 C 56.410 87.783,55.672 88.732,55.312 89.030 C 54.953 89.329,53.676 91.084,52.475 92.931 C 51.274 94.778,50.166 96.377,50.014 96.484 C 49.862 96.592,49.239 97.559,48.630 98.633 C 48.021 99.707,46.923 101.336,46.190 102.253 C 45.458 103.170,44.453 104.956,43.956 106.222 C 43.460 107.488,42.491 109.342,41.804 110.341 C 41.116 111.341,40.023 113.334,39.375 114.771 C 38.726 116.207,37.611 118.350,36.896 119.531 C 36.180 120.713,35.298 122.734,34.934 124.023 C 34.571 125.313,33.679 127.555,32.951 129.007 C 32.223 130.458,31.358 132.831,31.029 134.280 C 30.699 135.729,29.717 138.584,28.847 140.625 C 27.818 143.039,26.937 146.042,26.326 149.219 C 25.809 151.904,24.959 155.006,24.436 156.112 C 23.017 159.114,22.377 163.012,21.879 171.680 C 21.632 175.977,21.091 181.492,20.676 183.937 C 19.615 190.190,19.603 202.646,20.655 206.055 C 21.162 207.697,21.456 210.303,21.639 214.763 C 22.067 225.199,23.305 233.028,25.000 236.020 C 25.208 236.388,25.741 238.714,26.184 241.188 C 27.075 246.165,27.891 248.820,29.438 251.778 C 30.166 253.170,30.628 254.962,31.010 257.872 C 31.604 262.391,31.922 263.255,33.338 264.183 C 33.986 264.607,34.543 265.646,35.096 267.461 C 35.541 268.922,36.585 271.172,37.415 272.461 C 38.246 273.750,39.233 275.596,39.609 276.563 C 39.985 277.529,41.062 279.561,42.002 281.078 C 42.943 282.595,43.904 284.339,44.138 284.953 C 44.371 285.568,45.149 286.876,45.867 287.860 C 46.584 288.843,47.722 290.703,48.397 291.992 C 49.071 293.281,50.367 295.226,51.276 296.315 C 53.095 298.492,54.939 300.993,57.031 304.123 C 58.790 306.753,62.677 311.522,63.602 312.183 C 63.995 312.465,65.577 314.189,67.116 316.016 C 72.534 322.442,73.163 323.097,75.354 324.585 C 76.570 325.410,78.848 327.505,80.417 329.240 C 81.991 330.980,84.379 333.094,85.744 333.956 C 87.105 334.816,88.329 335.699,88.466 335.920 C 89.061 336.883,100.397 345.124,103.277 346.688 C 104.328 347.258,106.173 348.392,107.379 349.208 C 108.584 350.025,110.625 351.220,111.914 351.866 C 113.203 352.511,114.586 353.403,114.987 353.847 C 115.388 354.291,116.970 355.123,118.502 355.697 C 120.035 356.270,122.120 357.260,123.135 357.896 C 124.150 358.533,125.996 359.314,127.237 359.632 C 128.477 359.951,131.074 360.991,133.008 361.944 C 134.941 362.897,138.369 364.190,140.625 364.818 C 142.881 365.446,145.529 366.409,146.510 366.957 C 147.712 367.630,149.812 368.210,152.955 368.740 C 157.961 369.582,159.124 369.875,161.469 370.883 C 163.738 371.858,173.579 373.018,182.908 373.411 C 188.501 373.646,191.848 373.961,193.164 374.376 C 195.856 375.224,203.945 375.231,206.299 374.387 C 207.479 373.963,210.544 373.662,216.211 373.412 C 226.172 372.973,232.693 372.117,237.109 370.667 C 238.936 370.068,242.627 369.213,245.313 368.767 C 250.377 367.926,253.906 366.962,253.906 366.421 C 253.906 366.248,255.444 365.629,257.324 365.043 C 263.452 363.135,264.224 362.850,266.403 361.697 C 267.586 361.071,269.592 360.204,270.859 359.772 C 272.127 359.340,274.236 358.387,275.547 357.656 C 276.857 356.924,278.904 356.043,280.094 355.698 C 281.284 355.353,283.151 354.399,284.243 353.579 C 285.335 352.759,287.173 351.601,288.329 351.007 C 289.484 350.413,291.045 349.443,291.797 348.852 C 292.549 348.261,294.008 347.405,295.040 346.949 C 296.072 346.493,297.642 345.499,298.528 344.739 C 299.415 343.980,300.300 343.359,300.495 343.359 C 300.888 343.359,307.806 338.312,310.547 336.026 C 311.514 335.219,312.824 334.298,313.459 333.979 C 314.485 333.463,319.087 329.190,326.916 321.484 C 328.334 320.088,330.549 317.744,331.837 316.275 C 333.126 314.806,334.883 312.859,335.742 311.948 C 339.315 308.159,342.696 303.825,346.094 298.677 C 346.846 297.538,348.042 295.836,348.751 294.895 C 349.461 293.954,350.742 291.949,351.597 290.440 C 352.452 288.930,353.717 286.872,354.408 285.866 C 356.534 282.769,358.960 278.319,359.720 276.119 C 360.118 274.967,360.998 273.087,361.675 271.942 C 362.353 270.797,363.357 268.776,363.907 267.450 C 364.462 266.114,365.577 264.379,366.409 263.558 C 367.775 262.210,367.931 261.840,368.143 259.456 C 368.514 255.295,369.124 252.726,370.383 250.022 C 371.028 248.637,371.815 246.176,372.133 244.553 C 373.096 239.635,374.166 235.621,375.003 233.782 C 376.121 231.328,377.264 223.307,377.737 214.593 C 377.959 210.510,378.334 206.567,378.572 205.831 C 379.335 203.466,379.472 188.969,378.768 185.156 C 378.431 183.330,377.971 178.848,377.748 175.195 C 377.524 171.543,377.241 167.412,377.119 166.016 C 376.884 163.339,375.558 157.524,375.026 156.845 C 374.369 156.005,373.009 151.172,372.439 147.650 C 372.078 145.418,371.332 142.823,370.536 141.032 C 369.816 139.412,368.923 136.680,368.551 134.961 C 368.180 133.242,367.370 130.830,366.751 129.601 C 366.131 128.371,365.117 125.975,364.497 124.276 C 363.877 122.576,362.653 119.960,361.778 118.461 C 360.903 116.963,359.825 114.769,359.382 113.586 C 358.940 112.402,358.254 111.141,357.858 110.783 C 357.462 110.425,356.644 108.951,356.040 107.507 C 355.436 106.064,354.441 104.180,353.828 103.320 C 351.675 100.299,348.228 95.166,346.875 92.965 C 346.123 91.742,345.029 90.144,344.445 89.413 C 343.860 88.683,342.630 87.088,341.710 85.869 C 337.652 80.485,328.848 71.115,319.528 62.259 C 315.001 57.958,313.734 56.909,309.205 53.711 C 308.292 53.066,306.940 52.012,306.200 51.367 C 302.911 48.501,299.279 45.912,296.289 44.301 C 295.215 43.722,293.800 42.840,293.144 42.340 C 292.488 41.841,290.939 40.984,289.701 40.436 C 288.463 39.889,286.538 38.776,285.424 37.964 C 282.990 36.189,275.169 32.301,271.827 31.204 C 270.505 30.770,268.525 29.914,267.427 29.303 C 266.328 28.692,263.936 27.804,262.109 27.330 C 260.283 26.856,257.360 25.785,255.614 24.950 C 253.406 23.894,250.920 23.124,247.458 22.422 C 244.719 21.868,241.687 21.075,240.721 20.660 C 238.653 19.774,233.747 18.953,226.953 18.355 C 224.268 18.119,221.104 17.660,219.922 17.334 C 218.603 16.971,215.168 16.657,211.025 16.521 L 204.276 16.299 203.291 15.083 C 201.485 12.855,200.739 12.145,199.603 11.579 L 198.476 11.016 197.231 13.418 M212.091 31.228 C 215.646 31.646,222.070 32.285,226.367 32.649 L 234.180 33.310 237.199 34.905 C 240.643 36.724,240.645 36.711,236.759 37.869 C 235.169 38.342,233.500 38.962,233.048 39.246 C 232.596 39.531,231.252 40.040,230.060 40.377 C 228.815 40.730,227.486 41.428,226.935 42.018 C 226.408 42.583,225.273 43.397,224.414 43.828 C 222.710 44.682,218.750 48.335,218.750 49.053 C 218.750 49.298,218.074 50.271,217.248 51.215 C 213.306 55.716,210.315 66.581,211.722 71.289 C 212.171 72.793,212.855 75.166,213.240 76.563 C 214.064 79.546,215.606 82.714,216.726 83.726 C 217.162 84.120,217.971 85.366,218.523 86.494 C 219.311 88.104,219.931 88.765,221.406 89.568 C 222.440 90.131,223.628 90.972,224.045 91.437 C 224.463 91.902,226.738 93.234,229.102 94.396 C 238.058 98.801,242.100 99.172,249.546 96.274 C 257.505 93.177,257.081 93.435,262.762 88.249 C 265.121 86.097,267.200 83.085,267.825 80.916 C 268.174 79.703,268.991 77.656,269.639 76.367 C 271.846 71.982,271.604 62.864,269.141 57.617 C 268.536 56.328,267.841 54.523,267.597 53.607 C 267.352 52.690,266.662 51.372,266.062 50.677 C 265.083 49.543,264.606 48.750,263.132 45.807 C 262.734 45.010,260.628 43.718,258.862 43.187 C 257.548 42.792,258.625 42.187,260.642 42.187 C 262.037 42.187,262.890 42.406,263.451 42.908 C 263.895 43.305,265.684 44.194,267.428 44.884 C 269.171 45.574,271.808 46.849,273.287 47.717 C 274.766 48.585,277.206 49.917,278.709 50.677 C 280.212 51.437,281.970 52.451,282.615 52.931 C 283.261 53.410,284.668 54.118,285.742 54.504 C 286.816 54.889,288.223 55.678,288.867 56.257 C 289.512 56.835,290.918 57.898,291.992 58.618 C 293.066 59.338,294.904 60.705,296.075 61.656 C 297.247 62.608,298.661 63.582,299.217 63.822 C 300.352 64.311,302.572 66.038,305.821 68.958 C 307.024 70.040,309.056 71.797,310.337 72.865 C 314.628 76.440,322.211 84.017,323.220 85.739 C 323.769 86.676,324.840 87.955,325.600 88.582 C 326.360 89.208,328.250 91.326,329.800 93.288 C 332.579 96.806,332.950 97.318,335.793 101.563 C 336.585 102.744,337.718 104.272,338.311 104.958 C 338.904 105.644,340.041 107.402,340.836 108.864 C 341.632 110.327,342.855 112.402,343.553 113.477 C 344.252 114.551,345.280 116.450,345.837 117.696 C 346.394 118.943,347.197 120.403,347.620 120.941 C 348.043 121.479,348.690 122.832,349.058 123.948 C 349.426 125.064,350.482 127.400,351.405 129.141 C 352.327 130.881,353.781 134.334,354.636 136.813 C 355.491 139.293,356.542 142.010,356.971 142.852 C 357.401 143.693,358.112 146.278,358.551 148.596 C 358.990 150.914,359.956 154.595,360.696 156.776 C 361.437 158.957,362.225 161.973,362.447 163.477 C 363.369 169.721,363.667 173.551,363.430 176.103 C 363.207 178.502,363.294 179.059,364.206 181.052 L 365.234 183.298 365.228 195.457 C 365.223 205.336,365.082 208.570,364.479 212.695 C 364.071 215.488,363.532 219.180,363.282 220.898 C 362.240 228.063,361.587 231.231,360.510 234.344 C 359.884 236.153,359.027 239.669,358.605 242.157 C 358.032 245.530,357.496 247.336,356.496 249.261 C 355.759 250.681,354.784 253.198,354.330 254.854 C 353.875 256.511,352.451 259.943,351.166 262.481 C 349.880 265.019,348.828 267.257,348.828 267.456 C 348.828 267.654,348.293 268.659,347.639 269.690 C 346.986 270.721,346.121 272.431,345.719 273.491 C 345.316 274.550,344.205 276.598,343.249 278.041 C 342.293 279.484,340.773 281.895,339.872 283.398 C 337.913 286.667,335.952 289.619,334.702 291.180 C 334.200 291.808,333.350 293.052,332.813 293.944 C 331.762 295.690,328.978 299.056,326.211 301.927 C 325.265 302.908,324.023 304.326,323.450 305.078 C 321.041 308.241,317.270 312.134,312.049 316.850 C 310.471 318.276,308.389 320.185,307.422 321.094 C 306.455 322.002,305.049 323.198,304.297 323.752 C 303.545 324.306,302.402 325.224,301.758 325.793 C 301.113 326.362,299.795 327.277,298.828 327.827 C 297.861 328.376,296.455 329.381,295.703 330.058 C 293.741 331.827,288.075 335.549,285.459 336.789 C 284.229 337.371,282.208 338.537,280.967 339.379 C 278.784 340.860,275.413 342.578,274.689 342.578 C 274.495 342.578,273.632 343.088,272.772 343.711 C 271.911 344.335,269.907 345.311,268.318 345.880 C 266.730 346.450,264.780 347.343,263.985 347.864 C 263.191 348.386,261.081 349.188,259.298 349.647 C 256.617 350.338,251.679 352.183,247.852 353.924 C 247.422 354.119,245.258 354.640,243.043 355.081 C 240.828 355.523,237.902 356.303,236.541 356.815 C 232.833 358.211,227.925 358.793,211.914 359.737 C 208.906 359.915,205.950 360.257,205.346 360.499 C 203.771 361.127,195.653 361.052,193.224 360.386 C 192.117 360.082,188.871 359.729,186.012 359.602 C 176.015 359.155,168.186 358.259,164.751 357.169 C 162.976 356.605,159.070 355.772,156.072 355.318 C 153.074 354.864,150.638 354.316,150.658 354.102 C 150.692 353.755,154.713 352.204,159.766 350.589 C 160.732 350.280,162.314 349.528,163.281 348.918 C 164.248 348.308,165.826 347.497,166.789 347.114 C 168.415 346.468,169.727 345.452,173.587 341.846 C 174.963 340.561,179.883 333.567,180.547 331.952 C 181.285 330.158,181.689 321.450,181.244 316.932 C 180.722 311.631,180.298 310.400,177.964 307.422 C 177.039 306.240,176.146 304.845,175.981 304.320 C 175.569 303.009,171.621 299.113,169.723 298.144 C 168.866 297.707,167.813 296.960,167.383 296.485 C 162.629 291.228,145.566 290.652,138.788 295.520 C 137.757 296.260,136.242 297.229,135.421 297.674 C 132.000 299.526,127.321 305.152,126.177 308.789 C 125.906 309.648,125.361 310.708,124.965 311.144 C 122.004 314.403,122.179 331.796,125.185 332.950 C 125.468 333.058,125.998 334.044,126.362 335.141 C 126.726 336.237,127.420 337.612,127.903 338.196 C 128.386 338.780,129.285 340.137,129.899 341.211 C 130.513 342.285,131.200 343.284,131.426 343.430 C 133.232 344.603,133.423 344.903,132.716 345.452 C 131.814 346.154,128.563 345.458,127.277 344.288 C 126.777 343.833,124.697 342.629,122.656 341.613 C 120.615 340.597,118.367 339.330,117.661 338.797 C 116.954 338.264,115.273 337.328,113.924 336.716 C 112.575 336.104,111.243 335.329,110.963 334.992 C 110.684 334.655,109.465 333.820,108.255 333.135 C 107.045 332.450,105.176 331.104,104.102 330.143 C 103.027 329.182,101.270 327.801,100.195 327.074 C 95.136 323.650,91.620 320.892,89.891 318.993 C 89.328 318.374,87.921 316.968,86.765 315.868 C 80.804 310.195,72.461 301.442,71.123 299.458 C 70.817 299.004,69.909 297.906,69.106 297.017 C 68.302 296.129,67.339 294.810,66.965 294.088 C 66.591 293.365,65.812 292.158,65.234 291.406 C 61.361 286.371,58.634 282.327,57.898 280.530 C 57.429 279.382,56.450 277.624,55.723 276.624 C 54.996 275.623,54.180 274.102,53.909 273.242 C 53.638 272.383,52.502 270.098,51.385 268.164 C 50.268 266.230,49.119 264.033,48.832 263.281 C 48.544 262.529,47.729 260.947,47.019 259.766 C 46.230 258.452,45.415 256.252,44.922 254.102 C 44.477 252.168,43.582 249.475,42.931 248.118 C 42.265 246.729,41.326 243.614,40.785 240.996 C 40.256 238.437,39.226 234.625,38.498 232.527 C 36.963 228.106,36.517 225.795,35.953 219.336 C 34.994 208.353,34.744 205.931,34.337 203.711 C 33.640 199.900,34.128 187.322,35.153 182.665 C 35.699 180.184,35.947 177.952,35.849 176.415 C 35.478 170.602,36.649 162.933,38.823 156.937 C 39.582 154.844,40.574 151.169,41.027 148.769 C 41.578 145.850,42.282 143.548,43.155 141.814 C 43.873 140.389,44.667 138.088,44.920 136.701 C 45.313 134.545,49.200 125.678,50.049 125.000 C 50.454 124.677,54.297 116.699,54.297 116.182 C 54.297 115.919,54.934 114.763,55.712 113.613 C 56.491 112.464,57.458 110.761,57.861 109.830 C 58.438 108.499,61.396 104.224,62.501 103.125 C 62.609 103.018,63.400 101.889,64.259 100.617 C 69.226 93.262,70.672 91.369,73.235 88.867 C 74.335 87.793,75.744 86.211,76.364 85.352 C 79.600 80.868,96.335 65.582,100.219 63.562 C 100.851 63.234,101.792 62.510,102.311 61.955 C 102.829 61.400,104.411 60.205,105.826 59.300 C 107.241 58.395,109.024 57.174,109.789 56.587 C 111.179 55.521,113.667 54.124,119.922 50.896 C 121.748 49.953,124.351 48.507,125.706 47.681 C 127.061 46.855,129.505 45.705,131.137 45.126 C 132.769 44.546,134.736 43.660,135.509 43.156 C 136.282 42.652,138.057 41.950,139.453 41.596 C 140.850 41.241,143.317 40.371,144.936 39.661 C 146.555 38.952,148.928 38.165,150.209 37.913 C 153.520 37.262,158.706 35.697,162.003 34.353 C 164.308 33.414,165.781 33.128,170.011 32.796 C 182.023 31.853,183.921 31.680,186.523 31.288 C 190.802 30.645,191.564 30.598,198.810 30.531 C 203.453 30.489,207.689 30.711,212.091 31.228 M250.923 42.163 C 251.752 42.357,252.895 42.937,253.462 43.452 C 254.028 43.968,255.511 44.991,256.756 45.726 C 258.755 46.905,264.602 52.873,265.725 54.879 C 267.875 58.722,268.063 73.751,266.035 79.764 C 265.077 82.606,256.592 91.184,254.102 91.828 C 253.242 92.050,251.309 92.588,249.805 93.023 C 244.394 94.588,243.043 94.777,239.712 94.437 C 235.393 93.996,227.915 91.641,226.711 90.343 C 226.206 89.797,224.955 88.959,223.931 88.481 C 221.703 87.439,220.994 86.694,219.919 84.264 C 219.471 83.252,218.656 81.940,218.107 81.348 C 216.619 79.746,216.149 78.589,215.844 75.781 C 215.692 74.385,215.325 72.100,215.027 70.703 C 214.434 67.920,215.701 58.285,217.004 55.664 C 218.308 53.041,223.184 47.669,225.902 45.860 C 226.802 45.261,228.158 44.193,228.914 43.487 C 230.982 41.558,244.788 40.727,250.923 42.163 M33.088 95.108 C 32.948 95.962,32.998 96.826,33.201 97.029 C 33.785 97.613,34.072 96.343,33.687 94.872 L 33.343 93.555 33.088 95.108 M115.946 95.508 C 115.694 96.678,115.816 97.205,116.240 96.781 C 116.364 96.657,116.405 96.056,116.332 95.446 L 116.198 94.336 115.946 95.508 M146.695 102.870 C 145.954 103.412,146.153 104.297,147.015 104.297 C 147.746 104.297,148.403 103.491,148.170 102.882 C 147.911 102.207,147.605 102.205,146.695 102.870 M142.878 105.307 C 141.975 105.634,139.951 107.288,137.555 109.656 C 135.430 111.757,133.098 114.025,132.373 114.695 C 129.906 116.976,126.527 120.744,126.091 121.702 C 125.852 122.227,125.494 122.656,125.297 122.656 C 124.686 122.656,118.710 128.618,117.598 130.338 C 117.019 131.232,115.987 132.435,115.304 133.009 C 114.621 133.584,114.063 134.297,114.063 134.593 C 114.063 134.890,113.522 135.533,112.861 136.021 C 111.318 137.162,106.270 143.093,104.539 145.798 C 103.805 146.946,102.911 148.129,102.553 148.426 C 102.195 148.723,101.640 149.472,101.321 150.090 C 101.001 150.708,100.090 151.875,99.296 152.683 C 98.501 153.491,97.247 155.196,96.508 156.471 C 95.770 157.746,94.608 159.492,93.928 160.352 C 93.247 161.211,92.289 162.702,91.799 163.664 C 91.309 164.626,90.413 166.033,89.808 166.789 C 89.202 167.545,88.440 168.779,88.113 169.531 C 87.785 170.283,86.805 171.865,85.934 173.047 C 85.064 174.229,83.736 176.470,82.984 178.028 C 82.232 179.585,81.203 181.470,80.697 182.215 C 80.191 182.960,79.475 184.850,79.106 186.414 C 78.727 188.021,77.942 189.966,77.303 190.885 C 76.243 192.409,75.412 195.135,72.380 207.031 C 71.910 208.876,71.726 211.387,71.707 216.211 L 71.680 222.852 73.754 228.516 C 74.958 231.804,76.321 234.798,77.003 235.654 C 77.649 236.465,78.526 237.917,78.952 238.880 C 79.378 239.843,80.256 241.022,80.904 241.501 C 81.551 241.980,82.425 242.927,82.844 243.606 C 83.264 244.286,84.413 245.431,85.397 246.151 C 86.381 246.872,87.851 248.034,88.664 248.734 C 89.476 249.434,91.261 250.539,92.629 251.190 C 93.998 251.841,95.721 252.811,96.460 253.346 C 97.198 253.880,98.758 254.595,99.925 254.935 C 101.093 255.274,102.780 256.067,103.674 256.698 C 105.236 257.799,111.246 260.140,112.538 260.151 C 112.881 260.154,113.795 260.771,114.569 261.523 C 115.949 262.863,116.042 262.891,119.221 262.891 C 121.006 262.891,123.080 263.070,123.831 263.289 C 124.581 263.508,127.129 263.783,129.492 263.899 C 134.278 264.135,139.719 264.916,144.141 266.004 C 148.556 267.090,155.435 267.351,180.078 267.368 C 210.262 267.388,212.672 267.103,214.649 263.280 C 215.423 261.783,215.492 217.479,214.724 215.248 C 213.770 212.478,209.826 211.258,206.422 212.680 C 205.670 212.994,203.699 213.364,202.040 213.502 C 200.381 213.641,198.145 213.984,197.070 214.266 C 195.899 214.573,191.444 214.877,185.938 215.024 C 180.889 215.159,176.582 215.281,176.367 215.295 C 172.535 215.537,155.868 214.643,153.320 214.059 C 140.690 211.164,135.331 209.594,132.851 208.063 C 131.624 207.306,129.539 206.385,128.218 206.018 C 126.049 205.415,125.500 205.026,122.539 201.992 C 115.296 194.568,115.768 195.262,114.479 190.168 C 114.061 188.521,113.322 186.411,112.836 185.481 C 111.355 182.648,111.440 174.342,112.993 170.117 C 113.625 168.398,114.479 164.795,114.890 162.109 C 115.504 158.093,115.833 156.949,116.742 155.664 C 117.350 154.805,118.411 152.607,119.100 150.781 C 119.789 148.955,121.028 146.318,121.853 144.922 C 122.679 143.525,123.641 141.491,123.991 140.400 C 124.365 139.234,125.183 137.878,125.978 137.108 C 126.873 136.241,127.540 135.064,127.955 133.622 C 128.299 132.425,128.991 131.006,129.494 130.469 C 129.996 129.932,131.900 127.207,133.725 124.414 C 135.550 121.621,137.655 118.633,138.401 117.773 C 139.148 116.914,140.376 115.156,141.132 113.867 C 141.887 112.578,143.016 111.147,143.641 110.686 C 144.472 110.074,144.915 109.274,145.291 107.705 C 146.030 104.626,145.690 104.288,142.878 105.307 M139.766 111.406 C 140.619 112.259,140.256 113.219,138.294 115.297 C 137.227 116.428,136.251 117.821,136.125 118.393 C 136.000 118.965,135.455 119.848,134.915 120.355 C 134.376 120.862,133.682 121.807,133.374 122.455 C 133.066 123.103,131.695 125.127,130.327 126.953 C 128.792 129.002,127.499 131.246,126.949 132.813 C 126.411 134.346,125.615 135.738,124.939 136.328 C 124.324 136.865,123.477 138.210,123.059 139.318 C 122.640 140.425,121.598 142.413,120.743 143.735 C 119.888 145.058,118.809 147.316,118.346 148.754 C 117.882 150.191,116.896 152.375,116.154 153.606 C 115.070 155.405,114.658 156.716,114.059 160.278 C 113.594 163.035,112.937 165.439,112.321 166.633 C 109.636 171.836,109.580 182.947,112.212 188.359 C 112.974 189.927,113.891 192.249,114.249 193.517 C 115.065 196.405,116.667 198.391,123.242 204.663 C 124.102 205.483,125.244 206.282,125.781 206.440 C 127.314 206.891,129.307 207.834,131.641 209.211 C 132.822 209.909,134.932 210.836,136.328 211.272 C 137.725 211.708,140.801 212.684,143.164 213.441 C 151.370 216.071,167.729 217.048,187.305 216.079 C 201.204 215.390,205.993 215.009,206.914 214.516 C 209.455 213.156,212.812 214.584,213.493 217.315 C 213.610 217.782,213.654 228.038,213.591 240.106 L 213.477 262.047 212.525 263.059 C 211.513 264.137,210.100 264.616,206.641 265.053 C 205.459 265.203,203.350 265.566,201.953 265.859 C 197.481 266.799,161.331 266.611,157.031 265.625 C 155.205 265.206,152.251 264.859,150.466 264.854 C 148.681 264.848,146.484 264.666,145.583 264.448 C 144.682 264.231,139.862 263.710,134.872 263.291 C 128.016 262.715,125.342 262.339,123.934 261.753 C 122.909 261.326,120.664 260.773,118.945 260.525 C 117.227 260.277,115.331 259.821,114.733 259.513 C 114.135 259.204,112.465 258.588,111.022 258.145 C 109.579 257.702,107.344 256.757,106.055 256.045 C 104.766 255.332,102.711 254.463,101.489 254.112 C 100.267 253.761,98.597 253.017,97.778 252.458 C 96.959 251.899,95.336 251.019,94.171 250.501 C 90.398 248.824,81.136 240.782,79.979 238.179 C 79.602 237.330,78.690 235.644,77.952 234.432 C 77.214 233.219,76.325 231.172,75.977 229.883 C 75.628 228.594,75.195 227.188,75.015 226.758 C 73.703 223.624,73.633 223.070,73.660 216.016 C 73.682 210.398,73.841 208.224,74.377 206.250 C 74.756 204.854,75.394 202.082,75.796 200.090 C 76.197 198.099,77.143 195.103,77.897 193.432 C 78.652 191.761,79.527 189.285,79.844 187.930 C 80.160 186.575,80.850 184.825,81.377 184.042 C 81.905 183.258,83.062 181.123,83.948 179.297 C 84.834 177.471,86.170 175.300,86.916 174.474 C 87.661 173.648,88.454 172.293,88.678 171.463 C 88.901 170.633,89.686 169.165,90.422 168.201 C 91.157 167.237,92.138 165.692,92.601 164.767 C 93.065 163.843,93.934 162.559,94.533 161.914 C 95.133 161.270,96.363 159.512,97.267 158.008 C 98.170 156.504,99.347 154.808,99.880 154.239 C 100.414 153.670,101.407 152.411,102.086 151.440 C 104.744 147.641,105.742 146.339,107.773 144.015 C 108.934 142.687,110.345 140.898,110.910 140.039 C 111.475 139.180,112.635 137.757,113.488 136.878 C 114.341 135.999,115.781 134.417,116.687 133.363 C 120.859 128.508,124.780 124.380,125.817 123.749 C 126.442 123.369,126.953 122.876,126.953 122.653 C 126.953 122.430,129.056 120.098,131.625 117.472 C 134.195 114.845,136.649 112.300,137.080 111.816 C 137.941 110.849,139.041 110.681,139.766 111.406 M199.635 177.397 C 197.077 177.821,197.139 177.770,197.884 178.834 L 198.485 179.691 199.926 178.637 C 201.582 177.425,202.184 176.934,201.934 176.999 C 201.837 177.024,200.802 177.203,199.635 177.397 M115.210 178.384 C 114.738 179.626,115.206 180.264,116.328 179.908 C 117.018 179.689,117.058 179.525,116.672 178.502 C 116.131 177.069,115.723 177.036,115.210 178.384 M160.889 296.055 C 162.458 296.467,164.121 297.152,164.585 297.577 C 165.050 298.002,166.221 298.746,167.188 299.232 C 169.405 300.345,173.024 303.987,173.945 306.034 C 174.332 306.892,175.090 308.174,175.630 308.881 C 180.495 315.260,180.507 327.426,175.654 334.497 C 174.650 335.961,173.828 337.378,173.828 337.646 C 173.828 337.914,172.334 339.430,170.508 341.016 C 168.682 342.601,167.188 344.049,167.188 344.234 C 167.188 344.733,164.601 345.732,161.761 346.331 C 160.388 346.620,158.806 347.169,158.246 347.550 C 156.887 348.473,148.505 348.508,146.680 347.597 C 146.035 347.276,143.794 346.518,141.699 345.913 C 139.604 345.308,137.891 344.663,137.891 344.479 C 137.891 344.296,137.183 343.633,136.319 343.007 C 132.170 340.002,128.578 335.093,127.514 330.975 C 126.970 328.870,126.269 326.282,125.958 325.222 C 125.050 322.140,125.214 317.910,126.333 315.503 C 126.851 314.389,127.480 312.462,127.730 311.223 C 128.392 307.933,134.826 300.351,138.100 299.001 C 138.952 298.650,140.002 298.036,140.435 297.637 C 143.300 294.996,153.771 294.186,160.889 296.055 M32.718 343.846 C 32.244 344.570,32.195 344.929,32.525 345.260 C 33.725 346.459,35.138 345.078,34.066 343.754 L 33.354 342.875 32.718 343.846 M198.033 344.353 C 197.422 345.089,198.320 345.475,199.569 345.013 L 200.454 344.686 199.476 344.240 C 198.696 343.885,198.402 343.908,198.033 344.353 M365.669 344.313 L 364.738 344.811 365.824 345.083 C 367.071 345.396,367.869 344.868,367.105 344.234 C 366.741 343.932,366.338 343.954,365.669 344.313 " stroke="none" fill="#dc978c" fill-rule="evenodd"></path><path id="path4" d="M233.016 41.825 C 230.755 42.139,230.055 42.423,228.914 43.487 C 228.158 44.193,226.802 45.261,225.902 45.860 C 223.184 47.669,218.308 53.041,217.004 55.664 C 215.701 58.285,214.434 67.920,215.027 70.703 C 215.325 72.100,215.692 74.385,215.844 75.781 C 216.149 78.589,216.619 79.746,218.107 81.348 C 218.656 81.940,219.471 83.252,219.919 84.264 C 220.994 86.694,221.703 87.439,223.931 88.481 C 224.955 88.959,226.206 89.797,226.711 90.343 C 227.915 91.641,235.393 93.996,239.712 94.437 C 243.043 94.777,244.394 94.588,249.805 93.023 C 251.309 92.588,253.242 92.050,254.102 91.828 C 256.592 91.184,265.077 82.606,266.035 79.764 C 268.063 73.751,267.875 58.722,265.725 54.879 C 264.602 52.873,258.755 46.905,256.756 45.726 C 255.511 44.991,254.028 43.968,253.462 43.452 C 251.674 41.827,239.805 40.883,233.016 41.825 M146.862 295.296 C 144.035 295.657,141.634 296.532,140.435 297.637 C 140.002 298.036,138.952 298.650,138.100 299.001 C 134.826 300.351,128.392 307.933,127.730 311.223 C 127.480 312.462,126.851 314.389,126.333 315.503 C 125.214 317.910,125.050 322.140,125.958 325.222 C 126.269 326.282,126.970 328.870,127.514 330.975 C 128.578 335.093,132.170 340.002,136.319 343.007 C 137.183 343.633,137.891 344.296,137.891 344.479 C 137.891 344.663,139.604 345.308,141.699 345.913 C 143.794 346.518,146.035 347.276,146.680 347.597 C 148.505 348.508,156.887 348.473,158.246 347.550 C 158.806 347.169,160.388 346.620,161.761 346.331 C 164.601 345.732,167.188 344.733,167.188 344.234 C 167.188 344.049,168.682 342.601,170.508 341.016 C 172.334 339.430,173.828 337.914,173.828 337.646 C 173.828 337.378,174.650 335.961,175.654 334.497 C 180.507 327.426,180.495 315.260,175.630 308.881 C 175.090 308.174,174.332 306.892,173.945 306.034 C 173.024 303.987,169.405 300.345,167.188 299.232 C 166.221 298.746,165.050 298.002,164.585 297.577 C 162.594 295.754,152.973 294.516,146.862 295.296 " stroke="none" fill="#91345b" fill-rule="evenodd"></path></g></svg>